<svg width="354" height="186" viewBox="0 0 354 186" fill="none" xmlns="http://www.w3.org/2000/svg">
<path d="M102 57C102 50.3726 107.373 45 114 45H257.968C262.386 45 265.968 48.5817 265.968 53V60.6598H102V57Z" fill="#F12FFF" style="fill:#F12FFF;fill:color(display-p3 0.9451 0.1843 1.0000);fill-opacity:1;"/>
<path d="M257.968 45H110C105.582 45 102 48.5817 102 53V146.619C102 151.037 105.582 154.619 110 154.619H257.968C262.386 154.619 265.968 151.037 265.968 146.619V53C265.968 48.5817 262.386 45 257.968 45Z" stroke="#03282C" style="stroke:#03282C;stroke:color(display-p3 0.0118 0.1569 0.1725);stroke-opacity:1;" stroke-width="1.5"/>
<path d="M172 61V130" stroke="#03282C" style="stroke:#03282C;stroke:color(display-p3 0.0118 0.1569 0.1725);stroke-opacity:1;" stroke-width="1.5" stroke-miterlimit="10"/>
<path d="M236.223 74.0684H241.222C244.929 74.0684 247.94 77.0787 247.94 80.7864V81.6136C247.94 85.3213 244.929 88.3317 241.222 88.3317H236.223V74.0684Z" stroke="#03282C" style="stroke:#03282C;stroke:color(display-p3 0.0118 0.1569 0.1725);stroke-opacity:1;" stroke-width="1.5" stroke-miterlimit="10"/>
<path d="M229.67 74.0684V88.3317" stroke="#03282C" style="stroke:#03282C;stroke:color(display-p3 0.0118 0.1569 0.1725);stroke-opacity:1;" stroke-width="1.5" stroke-miterlimit="10" stroke-linecap="square"/>
<path d="M158.284 74.0684H115.496V116.857H158.284V74.0684Z" fill="#D4FAED" stroke="#03282C" style="fill:#D4FAED;fill:color(display-p3 0.8314 0.9804 0.9294);fill-opacity:1;stroke:#03282C;stroke:color(display-p3 0.0118 0.1569 0.1725);stroke-opacity:1;" stroke-width="1.5" stroke-miterlimit="10"/>
<path d="M150 130H115V136H150V130Z" fill="#14E5C5" stroke="#03282C" style="fill:#14E5C5;fill:color(display-p3 0.0784 0.8980 0.7725);fill-opacity:1;stroke:#03282C;stroke:color(display-p3 0.0118 0.1569 0.1725);stroke-opacity:1;" stroke-width="1.5" stroke-miterlimit="10"/>
<path d="M251 130H158V136H251V130Z" fill="#14E5C5" stroke="#03282C" style="fill:#14E5C5;fill:color(display-p3 0.0784 0.8980 0.7725);fill-opacity:1;stroke:#03282C;stroke:color(display-p3 0.0118 0.1569 0.1725);stroke-opacity:1;" stroke-width="1.5" stroke-miterlimit="10"/>
<path d="M182.188 74.0684H223.956" stroke="#03282C" style="stroke:#03282C;stroke:color(display-p3 0.0118 0.1569 0.1725);stroke-opacity:1;" stroke-width="1.5" stroke-miterlimit="10"/>
<path d="M182.188 81.2H223.956" stroke="#03282C" style="stroke:#03282C;stroke:color(display-p3 0.0118 0.1569 0.1725);stroke-opacity:1;" stroke-width="1.5" stroke-miterlimit="10"/>
<path d="M182.188 88.3317H223.956" stroke="#03282C" style="stroke:#03282C;stroke:color(display-p3 0.0118 0.1569 0.1725);stroke-opacity:1;" stroke-width="1.5" stroke-miterlimit="10"/>
<path d="M182.188 95.4625H251.178" stroke="#03282C" style="stroke:#03282C;stroke:color(display-p3 0.0118 0.1569 0.1725);stroke-opacity:1;" stroke-width="1.5" stroke-miterlimit="10"/>
<path d="M182.188 102.594H251.178" stroke="#03282C" style="stroke:#03282C;stroke:color(display-p3 0.0118 0.1569 0.1725);stroke-opacity:1;" stroke-width="1.5" stroke-miterlimit="10"/>
<path d="M182.188 109.726H251.178" stroke="#03282C" style="stroke:#03282C;stroke:color(display-p3 0.0118 0.1569 0.1725);stroke-opacity:1;" stroke-width="1.5" stroke-miterlimit="10"/>
<path d="M182.188 116.857H251.178" stroke="#03282C" style="stroke:#03282C;stroke:color(display-p3 0.0118 0.1569 0.1725);stroke-opacity:1;" stroke-width="1.5" stroke-miterlimit="10"/>
<path d="M115.736 117.037C120.644 110.531 128.438 106.325 137.216 106.325C145.569 106.325 153.032 110.134 157.964 116.109" stroke="#03282C" style="stroke:#03282C;stroke:color(display-p3 0.0118 0.1569 0.1725);stroke-opacity:1;" stroke-width="1.5" stroke-miterlimit="10"/>
<path d="M141.622 105.892C137.617 107.22 133.293 105.051 131.965 101.046L130.911 97.8686L129.857 94.6915C128.529 90.6862 130.698 86.3623 134.703 85.0339C138.708 83.7056 143.032 85.875 144.361 89.8802L145.415 93.0573L146.468 96.2344C147.797 100.24 145.627 104.564 141.622 105.892Z" stroke="#03282C" style="stroke:#03282C;stroke:color(display-p3 0.0118 0.1569 0.1725);stroke-opacity:1;" stroke-width="1.5" stroke-miterlimit="10"/>
<mask id="mask0_2113_18802" style="mask-type:luminance" maskUnits="userSpaceOnUse" x="118" y="130" width="30" height="6">
<path d="M148 130H118V136H148V130Z" fill="white" style="fill:white;fill-opacity:1;"/>
</mask>
<g mask="url(#mask0_2113_18802)">
<path d="M120 134C120.552 134 121 133.552 121 133C121 132.448 120.552 132 120 132C119.448 132 119 132.448 119 133C119 133.552 119.448 134 120 134Z" fill="#03282C" style="fill:#03282C;fill:color(display-p3 0.0118 0.1569 0.1725);fill-opacity:1;"/>
<path d="M125 134C125.552 134 126 133.552 126 133C126 132.448 125.552 132 125 132C124.448 132 124 132.448 124 133C124 133.552 124.448 134 125 134Z" fill="#03282C" style="fill:#03282C;fill:color(display-p3 0.0118 0.1569 0.1725);fill-opacity:1;"/>
<path d="M130 134C130.552 134 131 133.552 131 133C131 132.448 130.552 132 130 132C129.448 132 129 132.448 129 133C129 133.552 129.448 134 130 134Z" fill="#03282C" style="fill:#03282C;fill:color(display-p3 0.0118 0.1569 0.1725);fill-opacity:1;"/>
<path d="M135 134C135.552 134 136 133.552 136 133C136 132.448 135.552 132 135 132C134.448 132 134 132.448 134 133C134 133.552 134.448 134 135 134Z" fill="#03282C" style="fill:#03282C;fill:color(display-p3 0.0118 0.1569 0.1725);fill-opacity:1;"/>
<path d="M140 134C140.552 134 141 133.552 141 133C141 132.448 140.552 132 140 132C139.448 132 139 132.448 139 133C139 133.552 139.448 134 140 134Z" fill="#03282C" style="fill:#03282C;fill:color(display-p3 0.0118 0.1569 0.1725);fill-opacity:1;"/>
<path d="M145 134C145.552 134 146 133.552 146 133C146 132.448 145.552 132 145 132C144.448 132 144 132.448 144 133C144 133.552 144.448 134 145 134Z" fill="#03282C" style="fill:#03282C;fill:color(display-p3 0.0118 0.1569 0.1725);fill-opacity:1;"/>
</g>
<mask id="mask1_2113_18802" style="mask-type:luminance" maskUnits="userSpaceOnUse" x="160" y="130" width="89" height="6">
<path d="M249 130H160V136H249V130Z" fill="white" style="fill:white;fill-opacity:1;"/>
</mask>
<g mask="url(#mask1_2113_18802)">
<path d="M162 134C162.552 134 163 133.552 163 133C163 132.448 162.552 132 162 132C161.448 132 161 132.448 161 133C161 133.552 161.448 134 162 134Z" fill="#03282C" style="fill:#03282C;fill:color(display-p3 0.0118 0.1569 0.1725);fill-opacity:1;"/>
<path d="M167 134C167.552 134 168 133.552 168 133C168 132.448 167.552 132 167 132C166.448 132 166 132.448 166 133C166 133.552 166.448 134 167 134Z" fill="#03282C" style="fill:#03282C;fill:color(display-p3 0.0118 0.1569 0.1725);fill-opacity:1;"/>
<path d="M172 134C172.552 134 173 133.552 173 133C173 132.448 172.552 132 172 132C171.448 132 171 132.448 171 133C171 133.552 171.448 134 172 134Z" fill="#03282C" style="fill:#03282C;fill:color(display-p3 0.0118 0.1569 0.1725);fill-opacity:1;"/>
<path d="M177 134C177.552 134 178 133.552 178 133C178 132.448 177.552 132 177 132C176.448 132 176 132.448 176 133C176 133.552 176.448 134 177 134Z" fill="#03282C" style="fill:#03282C;fill:color(display-p3 0.0118 0.1569 0.1725);fill-opacity:1;"/>
<path d="M182 134C182.552 134 183 133.552 183 133C183 132.448 182.552 132 182 132C181.448 132 181 132.448 181 133C181 133.552 181.448 134 182 134Z" fill="#03282C" style="fill:#03282C;fill:color(display-p3 0.0118 0.1569 0.1725);fill-opacity:1;"/>
<path d="M187 134C187.552 134 188 133.552 188 133C188 132.448 187.552 132 187 132C186.448 132 186 132.448 186 133C186 133.552 186.448 134 187 134Z" fill="#03282C" style="fill:#03282C;fill:color(display-p3 0.0118 0.1569 0.1725);fill-opacity:1;"/>
<path d="M192 134C192.552 134 193 133.552 193 133C193 132.448 192.552 132 192 132C191.448 132 191 132.448 191 133C191 133.552 191.448 134 192 134Z" fill="#03282C" style="fill:#03282C;fill:color(display-p3 0.0118 0.1569 0.1725);fill-opacity:1;"/>
<path d="M197 134C197.552 134 198 133.552 198 133C198 132.448 197.552 132 197 132C196.448 132 196 132.448 196 133C196 133.552 196.448 134 197 134Z" fill="#03282C" style="fill:#03282C;fill:color(display-p3 0.0118 0.1569 0.1725);fill-opacity:1;"/>
<path d="M202 134C202.552 134 203 133.552 203 133C203 132.448 202.552 132 202 132C201.448 132 201 132.448 201 133C201 133.552 201.448 134 202 134Z" fill="#03282C" style="fill:#03282C;fill:color(display-p3 0.0118 0.1569 0.1725);fill-opacity:1;"/>
<path d="M207 134C207.552 134 208 133.552 208 133C208 132.448 207.552 132 207 132C206.448 132 206 132.448 206 133C206 133.552 206.448 134 207 134Z" fill="#03282C" style="fill:#03282C;fill:color(display-p3 0.0118 0.1569 0.1725);fill-opacity:1;"/>
<path d="M212 134C212.552 134 213 133.552 213 133C213 132.448 212.552 132 212 132C211.448 132 211 132.448 211 133C211 133.552 211.448 134 212 134Z" fill="#03282C" style="fill:#03282C;fill:color(display-p3 0.0118 0.1569 0.1725);fill-opacity:1;"/>
<path d="M217 134C217.552 134 218 133.552 218 133C218 132.448 217.552 132 217 132C216.448 132 216 132.448 216 133C216 133.552 216.448 134 217 134Z" fill="#03282C" style="fill:#03282C;fill:color(display-p3 0.0118 0.1569 0.1725);fill-opacity:1;"/>
<path d="M222 134C222.552 134 223 133.552 223 133C223 132.448 222.552 132 222 132C221.448 132 221 132.448 221 133C221 133.552 221.448 134 222 134Z" fill="#03282C" style="fill:#03282C;fill:color(display-p3 0.0118 0.1569 0.1725);fill-opacity:1;"/>
<path d="M227 134C227.552 134 228 133.552 228 133C228 132.448 227.552 132 227 132C226.448 132 226 132.448 226 133C226 133.552 226.448 134 227 134Z" fill="#03282C" style="fill:#03282C;fill:color(display-p3 0.0118 0.1569 0.1725);fill-opacity:1;"/>
<path d="M232 134C232.552 134 233 133.552 233 133C233 132.448 232.552 132 232 132C231.448 132 231 132.448 231 133C231 133.552 231.448 134 232 134Z" fill="#03282C" style="fill:#03282C;fill:color(display-p3 0.0118 0.1569 0.1725);fill-opacity:1;"/>
<path d="M237 134C237.552 134 238 133.552 238 133C238 132.448 237.552 132 237 132C236.448 132 236 132.448 236 133C236 133.552 236.448 134 237 134Z" fill="#03282C" style="fill:#03282C;fill:color(display-p3 0.0118 0.1569 0.1725);fill-opacity:1;"/>
<path d="M242 134C242.552 134 243 133.552 243 133C243 132.448 242.552 132 242 132C241.448 132 241 132.448 241 133C241 133.552 241.448 134 242 134Z" fill="#03282C" style="fill:#03282C;fill:color(display-p3 0.0118 0.1569 0.1725);fill-opacity:1;"/>
<path d="M247 134C247.552 134 248 133.552 248 133C248 132.448 247.552 132 247 132C246.448 132 246 132.448 246 133C246 133.552 246.448 134 247 134Z" fill="#03282C" style="fill:#03282C;fill:color(display-p3 0.0118 0.1569 0.1725);fill-opacity:1;"/>
</g>
<path d="M250.968 38H103C98.5817 38 95 41.5817 95 46V139.619C95 144.037 98.5817 147.619 103 147.619H250.968C255.386 147.619 258.968 144.037 258.968 139.619V46C258.968 41.5817 255.386 38 250.968 38Z" fill="#D4FAED" style="fill:#D4FAED;fill:color(display-p3 0.8314 0.9804 0.9294);fill-opacity:1;"/>
<path d="M95 50C95 43.3726 100.373 38 107 38H250.968C255.386 38 258.968 41.5817 258.968 46V53.6598H95V50Z" fill="#14E5C5" style="fill:#14E5C5;fill:color(display-p3 0.0784 0.8980 0.7725);fill-opacity:1;"/>
<path d="M165 54V123" stroke="#03282C" style="stroke:#03282C;stroke:color(display-p3 0.0118 0.1569 0.1725);stroke-opacity:1;" stroke-width="1.5" stroke-miterlimit="10"/>
<path d="M229.223 67.0684H234.222C237.929 67.0684 240.94 70.0787 240.94 73.7864V74.6136C240.94 78.3213 237.929 81.3317 234.222 81.3317H229.223V67.0684Z" stroke="#03282C" style="stroke:#03282C;stroke:color(display-p3 0.0118 0.1569 0.1725);stroke-opacity:1;" stroke-width="1.5" stroke-miterlimit="10"/>
<path d="M222.67 67.0684V81.3317" stroke="#03282C" style="stroke:#03282C;stroke:color(display-p3 0.0118 0.1569 0.1725);stroke-opacity:1;" stroke-width="1.5" stroke-miterlimit="10" stroke-linecap="square"/>
<path d="M151.284 67.0684H108.496V109.857H151.284V67.0684Z" fill="#D4FAED" stroke="#03282C" style="fill:#D4FAED;fill:color(display-p3 0.8314 0.9804 0.9294);fill-opacity:1;stroke:#03282C;stroke:color(display-p3 0.0118 0.1569 0.1725);stroke-opacity:1;" stroke-width="1.5" stroke-miterlimit="10"/>
<path d="M143 123H108V129H143V123Z" fill="#14E5C5" stroke="#03282C" style="fill:#14E5C5;fill:color(display-p3 0.0784 0.8980 0.7725);fill-opacity:1;stroke:#03282C;stroke:color(display-p3 0.0118 0.1569 0.1725);stroke-opacity:1;" stroke-width="1.5" stroke-miterlimit="10"/>
<path d="M244 123H151V129H244V123Z" fill="#14E5C5" stroke="#03282C" style="fill:#14E5C5;fill:color(display-p3 0.0784 0.8980 0.7725);fill-opacity:1;stroke:#03282C;stroke:color(display-p3 0.0118 0.1569 0.1725);stroke-opacity:1;" stroke-width="1.5" stroke-miterlimit="10"/>
<path d="M175.188 67.0684H216.956" stroke="#03282C" style="stroke:#03282C;stroke:color(display-p3 0.0118 0.1569 0.1725);stroke-opacity:1;" stroke-width="1.5" stroke-miterlimit="10"/>
<path d="M175.188 74.2H216.956" stroke="#03282C" style="stroke:#03282C;stroke:color(display-p3 0.0118 0.1569 0.1725);stroke-opacity:1;" stroke-width="1.5" stroke-miterlimit="10"/>
<path d="M175.188 81.3317H216.956" stroke="#03282C" style="stroke:#03282C;stroke:color(display-p3 0.0118 0.1569 0.1725);stroke-opacity:1;" stroke-width="1.5" stroke-miterlimit="10"/>
<path d="M175.188 88.4625H244.178" stroke="#03282C" style="stroke:#03282C;stroke:color(display-p3 0.0118 0.1569 0.1725);stroke-opacity:1;" stroke-width="1.5" stroke-miterlimit="10"/>
<path d="M175.188 95.5941H244.178" stroke="#03282C" style="stroke:#03282C;stroke:color(display-p3 0.0118 0.1569 0.1725);stroke-opacity:1;" stroke-width="1.5" stroke-miterlimit="10"/>
<path d="M175.188 102.726H244.178" stroke="#03282C" style="stroke:#03282C;stroke:color(display-p3 0.0118 0.1569 0.1725);stroke-opacity:1;" stroke-width="1.5" stroke-miterlimit="10"/>
<path d="M175.188 109.857H244.178" stroke="#03282C" style="stroke:#03282C;stroke:color(display-p3 0.0118 0.1569 0.1725);stroke-opacity:1;" stroke-width="1.5" stroke-miterlimit="10"/>
<path d="M108.736 110.037C113.644 103.531 121.438 99.325 130.216 99.325C138.569 99.325 146.032 103.134 150.964 109.109" stroke="#03282C" style="stroke:#03282C;stroke:color(display-p3 0.0118 0.1569 0.1725);stroke-opacity:1;" stroke-width="1.5" stroke-miterlimit="10"/>
<path d="M134.622 98.8919C130.617 100.22 126.293 98.0509 124.965 94.0457L123.911 90.8686L122.857 87.6915C121.529 83.6862 123.698 79.3623 127.703 78.0339C131.708 76.7056 136.032 78.875 137.361 82.8802L138.415 86.0573L139.468 89.2344C140.797 93.2396 138.627 97.5636 134.622 98.8919Z" stroke="#03282C" style="stroke:#03282C;stroke:color(display-p3 0.0118 0.1569 0.1725);stroke-opacity:1;" stroke-width="1.5" stroke-miterlimit="10"/>
<mask id="mask2_2113_18802" style="mask-type:luminance" maskUnits="userSpaceOnUse" x="111" y="123" width="30" height="6">
<path d="M141 123H111V129H141V123Z" fill="white" style="fill:white;fill-opacity:1;"/>
</mask>
<g mask="url(#mask2_2113_18802)">
<path d="M113 127C113.552 127 114 126.552 114 126C114 125.448 113.552 125 113 125C112.448 125 112 125.448 112 126C112 126.552 112.448 127 113 127Z" fill="#03282C" style="fill:#03282C;fill:color(display-p3 0.0118 0.1569 0.1725);fill-opacity:1;"/>
<path d="M118 127C118.552 127 119 126.552 119 126C119 125.448 118.552 125 118 125C117.448 125 117 125.448 117 126C117 126.552 117.448 127 118 127Z" fill="#03282C" style="fill:#03282C;fill:color(display-p3 0.0118 0.1569 0.1725);fill-opacity:1;"/>
<path d="M123 127C123.552 127 124 126.552 124 126C124 125.448 123.552 125 123 125C122.448 125 122 125.448 122 126C122 126.552 122.448 127 123 127Z" fill="#03282C" style="fill:#03282C;fill:color(display-p3 0.0118 0.1569 0.1725);fill-opacity:1;"/>
<path d="M128 127C128.552 127 129 126.552 129 126C129 125.448 128.552 125 128 125C127.448 125 127 125.448 127 126C127 126.552 127.448 127 128 127Z" fill="#03282C" style="fill:#03282C;fill:color(display-p3 0.0118 0.1569 0.1725);fill-opacity:1;"/>
<path d="M133 127C133.552 127 134 126.552 134 126C134 125.448 133.552 125 133 125C132.448 125 132 125.448 132 126C132 126.552 132.448 127 133 127Z" fill="#03282C" style="fill:#03282C;fill:color(display-p3 0.0118 0.1569 0.1725);fill-opacity:1;"/>
<path d="M138 127C138.552 127 139 126.552 139 126C139 125.448 138.552 125 138 125C137.448 125 137 125.448 137 126C137 126.552 137.448 127 138 127Z" fill="#03282C" style="fill:#03282C;fill:color(display-p3 0.0118 0.1569 0.1725);fill-opacity:1;"/>
</g>
<mask id="mask3_2113_18802" style="mask-type:luminance" maskUnits="userSpaceOnUse" x="153" y="123" width="89" height="6">
<path d="M242 123H153V129H242V123Z" fill="white" style="fill:white;fill-opacity:1;"/>
</mask>
<g mask="url(#mask3_2113_18802)">
<path d="M155 127C155.552 127 156 126.552 156 126C156 125.448 155.552 125 155 125C154.448 125 154 125.448 154 126C154 126.552 154.448 127 155 127Z" fill="#03282C" style="fill:#03282C;fill:color(display-p3 0.0118 0.1569 0.1725);fill-opacity:1;"/>
<path d="M160 127C160.552 127 161 126.552 161 126C161 125.448 160.552 125 160 125C159.448 125 159 125.448 159 126C159 126.552 159.448 127 160 127Z" fill="#03282C" style="fill:#03282C;fill:color(display-p3 0.0118 0.1569 0.1725);fill-opacity:1;"/>
<path d="M165 127C165.552 127 166 126.552 166 126C166 125.448 165.552 125 165 125C164.448 125 164 125.448 164 126C164 126.552 164.448 127 165 127Z" fill="#03282C" style="fill:#03282C;fill:color(display-p3 0.0118 0.1569 0.1725);fill-opacity:1;"/>
<path d="M170 127C170.552 127 171 126.552 171 126C171 125.448 170.552 125 170 125C169.448 125 169 125.448 169 126C169 126.552 169.448 127 170 127Z" fill="#03282C" style="fill:#03282C;fill:color(display-p3 0.0118 0.1569 0.1725);fill-opacity:1;"/>
<path d="M175 127C175.552 127 176 126.552 176 126C176 125.448 175.552 125 175 125C174.448 125 174 125.448 174 126C174 126.552 174.448 127 175 127Z" fill="#03282C" style="fill:#03282C;fill:color(display-p3 0.0118 0.1569 0.1725);fill-opacity:1;"/>
<path d="M180 127C180.552 127 181 126.552 181 126C181 125.448 180.552 125 180 125C179.448 125 179 125.448 179 126C179 126.552 179.448 127 180 127Z" fill="#03282C" style="fill:#03282C;fill:color(display-p3 0.0118 0.1569 0.1725);fill-opacity:1;"/>
<path d="M185 127C185.552 127 186 126.552 186 126C186 125.448 185.552 125 185 125C184.448 125 184 125.448 184 126C184 126.552 184.448 127 185 127Z" fill="#03282C" style="fill:#03282C;fill:color(display-p3 0.0118 0.1569 0.1725);fill-opacity:1;"/>
<path d="M190 127C190.552 127 191 126.552 191 126C191 125.448 190.552 125 190 125C189.448 125 189 125.448 189 126C189 126.552 189.448 127 190 127Z" fill="#03282C" style="fill:#03282C;fill:color(display-p3 0.0118 0.1569 0.1725);fill-opacity:1;"/>
<path d="M195 127C195.552 127 196 126.552 196 126C196 125.448 195.552 125 195 125C194.448 125 194 125.448 194 126C194 126.552 194.448 127 195 127Z" fill="#03282C" style="fill:#03282C;fill:color(display-p3 0.0118 0.1569 0.1725);fill-opacity:1;"/>
<path d="M200 127C200.552 127 201 126.552 201 126C201 125.448 200.552 125 200 125C199.448 125 199 125.448 199 126C199 126.552 199.448 127 200 127Z" fill="#03282C" style="fill:#03282C;fill:color(display-p3 0.0118 0.1569 0.1725);fill-opacity:1;"/>
<path d="M205 127C205.552 127 206 126.552 206 126C206 125.448 205.552 125 205 125C204.448 125 204 125.448 204 126C204 126.552 204.448 127 205 127Z" fill="#03282C" style="fill:#03282C;fill:color(display-p3 0.0118 0.1569 0.1725);fill-opacity:1;"/>
<path d="M210 127C210.552 127 211 126.552 211 126C211 125.448 210.552 125 210 125C209.448 125 209 125.448 209 126C209 126.552 209.448 127 210 127Z" fill="#03282C" style="fill:#03282C;fill:color(display-p3 0.0118 0.1569 0.1725);fill-opacity:1;"/>
<path d="M215 127C215.552 127 216 126.552 216 126C216 125.448 215.552 125 215 125C214.448 125 214 125.448 214 126C214 126.552 214.448 127 215 127Z" fill="#03282C" style="fill:#03282C;fill:color(display-p3 0.0118 0.1569 0.1725);fill-opacity:1;"/>
<path d="M220 127C220.552 127 221 126.552 221 126C221 125.448 220.552 125 220 125C219.448 125 219 125.448 219 126C219 126.552 219.448 127 220 127Z" fill="#03282C" style="fill:#03282C;fill:color(display-p3 0.0118 0.1569 0.1725);fill-opacity:1;"/>
<path d="M225 127C225.552 127 226 126.552 226 126C226 125.448 225.552 125 225 125C224.448 125 224 125.448 224 126C224 126.552 224.448 127 225 127Z" fill="#03282C" style="fill:#03282C;fill:color(display-p3 0.0118 0.1569 0.1725);fill-opacity:1;"/>
<path d="M230 127C230.552 127 231 126.552 231 126C231 125.448 230.552 125 230 125C229.448 125 229 125.448 229 126C229 126.552 229.448 127 230 127Z" fill="#03282C" style="fill:#03282C;fill:color(display-p3 0.0118 0.1569 0.1725);fill-opacity:1;"/>
<path d="M235 127C235.552 127 236 126.552 236 126C236 125.448 235.552 125 235 125C234.448 125 234 125.448 234 126C234 126.552 234.448 127 235 127Z" fill="#03282C" style="fill:#03282C;fill:color(display-p3 0.0118 0.1569 0.1725);fill-opacity:1;"/>
<path d="M240 127C240.552 127 241 126.552 241 126C241 125.448 240.552 125 240 125C239.448 125 239 125.448 239 126C239 126.552 239.448 127 240 127Z" fill="#03282C" style="fill:#03282C;fill:color(display-p3 0.0118 0.1569 0.1725);fill-opacity:1;"/>
</g>
<path d="M250.968 38H103C98.5817 38 95 41.5817 95 46V139.619C95 144.037 98.5817 147.619 103 147.619H250.968C255.386 147.619 258.968 144.037 258.968 139.619V46C258.968 41.5817 255.386 38 250.968 38Z" stroke="#03282C" style="stroke:#03282C;stroke:color(display-p3 0.0118 0.1569 0.1725);stroke-opacity:1;" stroke-width="1.5"/>
<path d="M88 45H252V133C252 137.418 248.418 141 244 141H96C91.5817 141 88 137.418 88 133V45Z" fill="white" style="fill:white;fill-opacity:1;"/>
<path d="M88 39C88 34.5817 91.5817 31 96 31H243.968C248.386 31 251.968 34.5817 251.968 39V46.6598H88V39Z" fill="#9DC6E5" style="fill:#9DC6E5;fill:color(display-p3 0.6157 0.7765 0.8980);fill-opacity:1;"/>
<path d="M243.968 31H96C91.5817 31 88 34.5817 88 39V132.619C88 137.037 91.5817 140.619 96 140.619H243.968C248.386 140.619 251.968 137.037 251.968 132.619V39C251.968 34.5817 248.386 31 243.968 31Z" stroke="#03282C" style="stroke:#03282C;stroke:color(display-p3 0.0118 0.1569 0.1725);stroke-opacity:1;" stroke-width="1.5"/>
<path d="M144.284 60.0684H101.496V102.857H144.284V60.0684Z" fill="#D4FAED" style="fill:#D4FAED;fill:color(display-p3 0.8314 0.9804 0.9294);fill-opacity:1;"/>
<path d="M136 116H101V122H136V116Z" fill="#D4FAED" style="fill:#D4FAED;fill:color(display-p3 0.8314 0.9804 0.9294);fill-opacity:1;"/>
<path d="M237 116H144V122H237V116Z" fill="#D4FAED" style="fill:#D4FAED;fill:color(display-p3 0.8314 0.9804 0.9294);fill-opacity:1;"/>
<path d="M160.188 67.2H201.956" stroke="#03282C" style="stroke:#03282C;stroke:color(display-p3 0.0118 0.1569 0.1725);stroke-opacity:1;" stroke-width="1.5" stroke-miterlimit="10"/>
<path d="M160.188 75H201.956" stroke="#03282C" style="stroke:#03282C;stroke:color(display-p3 0.0118 0.1569 0.1725);stroke-opacity:1;" stroke-width="1.5" stroke-miterlimit="10"/>
<path d="M160 83H237.179" stroke="#03282C" style="stroke:#03282C;stroke:color(display-p3 0.0118 0.1569 0.1725);stroke-opacity:1;" stroke-width="1.5" stroke-miterlimit="10"/>
<path d="M160 91H237.179" stroke="#03282C" style="stroke:#03282C;stroke:color(display-p3 0.0118 0.1569 0.1725);stroke-opacity:1;" stroke-width="1.5" stroke-miterlimit="10"/>
<path d="M160 99H237.179" stroke="#03282C" style="stroke:#03282C;stroke:color(display-p3 0.0118 0.1569 0.1725);stroke-opacity:1;" stroke-width="1.5" stroke-miterlimit="10"/>
<path d="M101.736 103.037C106.644 96.531 114.438 92.325 123.216 92.325C131.569 92.325 139.032 96.134 143.964 102.109" stroke="#03282C" style="stroke:#03282C;stroke:color(display-p3 0.0118 0.1569 0.1725);stroke-opacity:1;" stroke-width="1.5" stroke-miterlimit="10"/>
<path d="M127.622 91.8919C123.617 93.2203 119.293 91.0509 117.965 87.0457L116.911 83.8686L115.857 80.6915C114.529 76.6862 116.698 72.3623 120.703 71.0339C124.708 69.7056 129.032 71.875 130.361 75.8802L131.415 79.0573L132.468 82.2344C133.797 86.2396 131.627 90.5636 127.622 91.8919Z" stroke="#03282C" style="stroke:#03282C;stroke:color(display-p3 0.0118 0.1569 0.1725);stroke-opacity:1;" stroke-width="1.5" stroke-miterlimit="10"/>
<mask id="mask4_2113_18802" style="mask-type:luminance" maskUnits="userSpaceOnUse" x="104" y="116" width="30" height="6">
<path d="M134 116H104V122H134V116Z" fill="white" style="fill:white;fill-opacity:1;"/>
</mask>
<g mask="url(#mask4_2113_18802)">
<path d="M106 120C106.552 120 107 119.552 107 119C107 118.448 106.552 118 106 118C105.448 118 105 118.448 105 119C105 119.552 105.448 120 106 120Z" fill="#03282C" style="fill:#03282C;fill:color(display-p3 0.0118 0.1569 0.1725);fill-opacity:1;"/>
<path d="M111 120C111.552 120 112 119.552 112 119C112 118.448 111.552 118 111 118C110.448 118 110 118.448 110 119C110 119.552 110.448 120 111 120Z" fill="#03282C" style="fill:#03282C;fill:color(display-p3 0.0118 0.1569 0.1725);fill-opacity:1;"/>
<path d="M116 120C116.552 120 117 119.552 117 119C117 118.448 116.552 118 116 118C115.448 118 115 118.448 115 119C115 119.552 115.448 120 116 120Z" fill="#03282C" style="fill:#03282C;fill:color(display-p3 0.0118 0.1569 0.1725);fill-opacity:1;"/>
<path d="M121 120C121.552 120 122 119.552 122 119C122 118.448 121.552 118 121 118C120.448 118 120 118.448 120 119C120 119.552 120.448 120 121 120Z" fill="#03282C" style="fill:#03282C;fill:color(display-p3 0.0118 0.1569 0.1725);fill-opacity:1;"/>
<path d="M126 120C126.552 120 127 119.552 127 119C127 118.448 126.552 118 126 118C125.448 118 125 118.448 125 119C125 119.552 125.448 120 126 120Z" fill="#03282C" style="fill:#03282C;fill:color(display-p3 0.0118 0.1569 0.1725);fill-opacity:1;"/>
<path d="M131 120C131.552 120 132 119.552 132 119C132 118.448 131.552 118 131 118C130.448 118 130 118.448 130 119C130 119.552 130.448 120 131 120Z" fill="#03282C" style="fill:#03282C;fill:color(display-p3 0.0118 0.1569 0.1725);fill-opacity:1;"/>
</g>
<mask id="mask5_2113_18802" style="mask-type:luminance" maskUnits="userSpaceOnUse" x="146" y="116" width="89" height="6">
<path d="M235 116H146V122H235V116Z" fill="white" style="fill:white;fill-opacity:1;"/>
</mask>
<g mask="url(#mask5_2113_18802)">
<path d="M148 120C148.552 120 149 119.552 149 119C149 118.448 148.552 118 148 118C147.448 118 147 118.448 147 119C147 119.552 147.448 120 148 120Z" fill="#03282C" style="fill:#03282C;fill:color(display-p3 0.0118 0.1569 0.1725);fill-opacity:1;"/>
<path d="M153 120C153.552 120 154 119.552 154 119C154 118.448 153.552 118 153 118C152.448 118 152 118.448 152 119C152 119.552 152.448 120 153 120Z" fill="#03282C" style="fill:#03282C;fill:color(display-p3 0.0118 0.1569 0.1725);fill-opacity:1;"/>
<path d="M158 120C158.552 120 159 119.552 159 119C159 118.448 158.552 118 158 118C157.448 118 157 118.448 157 119C157 119.552 157.448 120 158 120Z" fill="#03282C" style="fill:#03282C;fill:color(display-p3 0.0118 0.1569 0.1725);fill-opacity:1;"/>
<path d="M163 120C163.552 120 164 119.552 164 119C164 118.448 163.552 118 163 118C162.448 118 162 118.448 162 119C162 119.552 162.448 120 163 120Z" fill="#03282C" style="fill:#03282C;fill:color(display-p3 0.0118 0.1569 0.1725);fill-opacity:1;"/>
<path d="M168 120C168.552 120 169 119.552 169 119C169 118.448 168.552 118 168 118C167.448 118 167 118.448 167 119C167 119.552 167.448 120 168 120Z" fill="#03282C" style="fill:#03282C;fill:color(display-p3 0.0118 0.1569 0.1725);fill-opacity:1;"/>
<path d="M173 120C173.552 120 174 119.552 174 119C174 118.448 173.552 118 173 118C172.448 118 172 118.448 172 119C172 119.552 172.448 120 173 120Z" fill="#03282C" style="fill:#03282C;fill:color(display-p3 0.0118 0.1569 0.1725);fill-opacity:1;"/>
<path d="M178 120C178.552 120 179 119.552 179 119C179 118.448 178.552 118 178 118C177.448 118 177 118.448 177 119C177 119.552 177.448 120 178 120Z" fill="#03282C" style="fill:#03282C;fill:color(display-p3 0.0118 0.1569 0.1725);fill-opacity:1;"/>
<path d="M183 120C183.552 120 184 119.552 184 119C184 118.448 183.552 118 183 118C182.448 118 182 118.448 182 119C182 119.552 182.448 120 183 120Z" fill="#03282C" style="fill:#03282C;fill:color(display-p3 0.0118 0.1569 0.1725);fill-opacity:1;"/>
<path d="M188 120C188.552 120 189 119.552 189 119C189 118.448 188.552 118 188 118C187.448 118 187 118.448 187 119C187 119.552 187.448 120 188 120Z" fill="#03282C" style="fill:#03282C;fill:color(display-p3 0.0118 0.1569 0.1725);fill-opacity:1;"/>
<path d="M193 120C193.552 120 194 119.552 194 119C194 118.448 193.552 118 193 118C192.448 118 192 118.448 192 119C192 119.552 192.448 120 193 120Z" fill="#03282C" style="fill:#03282C;fill:color(display-p3 0.0118 0.1569 0.1725);fill-opacity:1;"/>
<path d="M198 120C198.552 120 199 119.552 199 119C199 118.448 198.552 118 198 118C197.448 118 197 118.448 197 119C197 119.552 197.448 120 198 120Z" fill="#03282C" style="fill:#03282C;fill:color(display-p3 0.0118 0.1569 0.1725);fill-opacity:1;"/>
<path d="M203 120C203.552 120 204 119.552 204 119C204 118.448 203.552 118 203 118C202.448 118 202 118.448 202 119C202 119.552 202.448 120 203 120Z" fill="#03282C" style="fill:#03282C;fill:color(display-p3 0.0118 0.1569 0.1725);fill-opacity:1;"/>
<path d="M208 120C208.552 120 209 119.552 209 119C209 118.448 208.552 118 208 118C207.448 118 207 118.448 207 119C207 119.552 207.448 120 208 120Z" fill="#03282C" style="fill:#03282C;fill:color(display-p3 0.0118 0.1569 0.1725);fill-opacity:1;"/>
<path d="M213 120C213.552 120 214 119.552 214 119C214 118.448 213.552 118 213 118C212.448 118 212 118.448 212 119C212 119.552 212.448 120 213 120Z" fill="#03282C" style="fill:#03282C;fill:color(display-p3 0.0118 0.1569 0.1725);fill-opacity:1;"/>
<path d="M218 120C218.552 120 219 119.552 219 119C219 118.448 218.552 118 218 118C217.448 118 217 118.448 217 119C217 119.552 217.448 120 218 120Z" fill="#03282C" style="fill:#03282C;fill:color(display-p3 0.0118 0.1569 0.1725);fill-opacity:1;"/>
<path d="M223 120C223.552 120 224 119.552 224 119C224 118.448 223.552 118 223 118C222.448 118 222 118.448 222 119C222 119.552 222.448 120 223 120Z" fill="#03282C" style="fill:#03282C;fill:color(display-p3 0.0118 0.1569 0.1725);fill-opacity:1;"/>
<path d="M228 120C228.552 120 229 119.552 229 119C229 118.448 228.552 118 228 118C227.448 118 227 118.448 227 119C227 119.552 227.448 120 228 120Z" fill="#03282C" style="fill:#03282C;fill:color(display-p3 0.0118 0.1569 0.1725);fill-opacity:1;"/>
<path d="M233 120C233.552 120 234 119.552 234 119C234 118.448 233.552 118 233 118C232.448 118 232 118.448 232 119C232 119.552 232.448 120 233 120Z" fill="#03282C" style="fill:#03282C;fill:color(display-p3 0.0118 0.1569 0.1725);fill-opacity:1;"/>
</g>
<mask id="mask6_2113_18802" style="mask-type:luminance" maskUnits="userSpaceOnUse" x="89" y="41" width="163" height="6">
<path d="M252 41H89V47H252V41Z" fill="white" style="fill:white;fill-opacity:1;"/>
</mask>
<g mask="url(#mask6_2113_18802)">
<path d="M91 45C91.5523 45 92 44.5523 92 44C92 43.4477 91.5523 43 91 43C90.4477 43 90 43.4477 90 44C90 44.5523 90.4477 45 91 45Z" fill="#03282C" style="fill:#03282C;fill:color(display-p3 0.0118 0.1569 0.1725);fill-opacity:1;"/>
<path d="M96 45C96.5523 45 97 44.5523 97 44C97 43.4477 96.5523 43 96 43C95.4477 43 95 43.4477 95 44C95 44.5523 95.4477 45 96 45Z" fill="#03282C" style="fill:#03282C;fill:color(display-p3 0.0118 0.1569 0.1725);fill-opacity:1;"/>
<path d="M101 45C101.552 45 102 44.5523 102 44C102 43.4477 101.552 43 101 43C100.448 43 100 43.4477 100 44C100 44.5523 100.448 45 101 45Z" fill="#03282C" style="fill:#03282C;fill:color(display-p3 0.0118 0.1569 0.1725);fill-opacity:1;"/>
<path d="M106 45C106.552 45 107 44.5523 107 44C107 43.4477 106.552 43 106 43C105.448 43 105 43.4477 105 44C105 44.5523 105.448 45 106 45Z" fill="#03282C" style="fill:#03282C;fill:color(display-p3 0.0118 0.1569 0.1725);fill-opacity:1;"/>
<path d="M111 45C111.552 45 112 44.5523 112 44C112 43.4477 111.552 43 111 43C110.448 43 110 43.4477 110 44C110 44.5523 110.448 45 111 45Z" fill="#03282C" style="fill:#03282C;fill:color(display-p3 0.0118 0.1569 0.1725);fill-opacity:1;"/>
<path d="M116 45C116.552 45 117 44.5523 117 44C117 43.4477 116.552 43 116 43C115.448 43 115 43.4477 115 44C115 44.5523 115.448 45 116 45Z" fill="#03282C" style="fill:#03282C;fill:color(display-p3 0.0118 0.1569 0.1725);fill-opacity:1;"/>
<path d="M121 45C121.552 45 122 44.5523 122 44C122 43.4477 121.552 43 121 43C120.448 43 120 43.4477 120 44C120 44.5523 120.448 45 121 45Z" fill="#03282C" style="fill:#03282C;fill:color(display-p3 0.0118 0.1569 0.1725);fill-opacity:1;"/>
<path d="M126 45C126.552 45 127 44.5523 127 44C127 43.4477 126.552 43 126 43C125.448 43 125 43.4477 125 44C125 44.5523 125.448 45 126 45Z" fill="#03282C" style="fill:#03282C;fill:color(display-p3 0.0118 0.1569 0.1725);fill-opacity:1;"/>
<path d="M131 45C131.552 45 132 44.5523 132 44C132 43.4477 131.552 43 131 43C130.448 43 130 43.4477 130 44C130 44.5523 130.448 45 131 45Z" fill="#03282C" style="fill:#03282C;fill:color(display-p3 0.0118 0.1569 0.1725);fill-opacity:1;"/>
<path d="M136 45C136.552 45 137 44.5523 137 44C137 43.4477 136.552 43 136 43C135.448 43 135 43.4477 135 44C135 44.5523 135.448 45 136 45Z" fill="#03282C" style="fill:#03282C;fill:color(display-p3 0.0118 0.1569 0.1725);fill-opacity:1;"/>
<path d="M141 45C141.552 45 142 44.5523 142 44C142 43.4477 141.552 43 141 43C140.448 43 140 43.4477 140 44C140 44.5523 140.448 45 141 45Z" fill="#03282C" style="fill:#03282C;fill:color(display-p3 0.0118 0.1569 0.1725);fill-opacity:1;"/>
<path d="M146 45C146.552 45 147 44.5523 147 44C147 43.4477 146.552 43 146 43C145.448 43 145 43.4477 145 44C145 44.5523 145.448 45 146 45Z" fill="#03282C" style="fill:#03282C;fill:color(display-p3 0.0118 0.1569 0.1725);fill-opacity:1;"/>
<path d="M151 45C151.552 45 152 44.5523 152 44C152 43.4477 151.552 43 151 43C150.448 43 150 43.4477 150 44C150 44.5523 150.448 45 151 45Z" fill="#03282C" style="fill:#03282C;fill:color(display-p3 0.0118 0.1569 0.1725);fill-opacity:1;"/>
<path d="M156 45C156.552 45 157 44.5523 157 44C157 43.4477 156.552 43 156 43C155.448 43 155 43.4477 155 44C155 44.5523 155.448 45 156 45Z" fill="#03282C" style="fill:#03282C;fill:color(display-p3 0.0118 0.1569 0.1725);fill-opacity:1;"/>
<path d="M161 45C161.552 45 162 44.5523 162 44C162 43.4477 161.552 43 161 43C160.448 43 160 43.4477 160 44C160 44.5523 160.448 45 161 45Z" fill="#03282C" style="fill:#03282C;fill:color(display-p3 0.0118 0.1569 0.1725);fill-opacity:1;"/>
<path d="M166 45C166.552 45 167 44.5523 167 44C167 43.4477 166.552 43 166 43C165.448 43 165 43.4477 165 44C165 44.5523 165.448 45 166 45Z" fill="#03282C" style="fill:#03282C;fill:color(display-p3 0.0118 0.1569 0.1725);fill-opacity:1;"/>
<path d="M171 45C171.552 45 172 44.5523 172 44C172 43.4477 171.552 43 171 43C170.448 43 170 43.4477 170 44C170 44.5523 170.448 45 171 45Z" fill="#03282C" style="fill:#03282C;fill:color(display-p3 0.0118 0.1569 0.1725);fill-opacity:1;"/>
<path d="M176 45C176.552 45 177 44.5523 177 44C177 43.4477 176.552 43 176 43C175.448 43 175 43.4477 175 44C175 44.5523 175.448 45 176 45Z" fill="#03282C" style="fill:#03282C;fill:color(display-p3 0.0118 0.1569 0.1725);fill-opacity:1;"/>
<path d="M181 45C181.552 45 182 44.5523 182 44C182 43.4477 181.552 43 181 43C180.448 43 180 43.4477 180 44C180 44.5523 180.448 45 181 45Z" fill="#03282C" style="fill:#03282C;fill:color(display-p3 0.0118 0.1569 0.1725);fill-opacity:1;"/>
<path d="M186 45C186.552 45 187 44.5523 187 44C187 43.4477 186.552 43 186 43C185.448 43 185 43.4477 185 44C185 44.5523 185.448 45 186 45Z" fill="#03282C" style="fill:#03282C;fill:color(display-p3 0.0118 0.1569 0.1725);fill-opacity:1;"/>
<path d="M191 45C191.552 45 192 44.5523 192 44C192 43.4477 191.552 43 191 43C190.448 43 190 43.4477 190 44C190 44.5523 190.448 45 191 45Z" fill="#03282C" style="fill:#03282C;fill:color(display-p3 0.0118 0.1569 0.1725);fill-opacity:1;"/>
<path d="M196 45C196.552 45 197 44.5523 197 44C197 43.4477 196.552 43 196 43C195.448 43 195 43.4477 195 44C195 44.5523 195.448 45 196 45Z" fill="#03282C" style="fill:#03282C;fill:color(display-p3 0.0118 0.1569 0.1725);fill-opacity:1;"/>
<path d="M201 45C201.552 45 202 44.5523 202 44C202 43.4477 201.552 43 201 43C200.448 43 200 43.4477 200 44C200 44.5523 200.448 45 201 45Z" fill="#03282C" style="fill:#03282C;fill:color(display-p3 0.0118 0.1569 0.1725);fill-opacity:1;"/>
<path d="M206 45C206.552 45 207 44.5523 207 44C207 43.4477 206.552 43 206 43C205.448 43 205 43.4477 205 44C205 44.5523 205.448 45 206 45Z" fill="#03282C" style="fill:#03282C;fill:color(display-p3 0.0118 0.1569 0.1725);fill-opacity:1;"/>
<path d="M211 45C211.552 45 212 44.5523 212 44C212 43.4477 211.552 43 211 43C210.448 43 210 43.4477 210 44C210 44.5523 210.448 45 211 45Z" fill="#03282C" style="fill:#03282C;fill:color(display-p3 0.0118 0.1569 0.1725);fill-opacity:1;"/>
<path d="M216 45C216.552 45 217 44.5523 217 44C217 43.4477 216.552 43 216 43C215.448 43 215 43.4477 215 44C215 44.5523 215.448 45 216 45Z" fill="#03282C" style="fill:#03282C;fill:color(display-p3 0.0118 0.1569 0.1725);fill-opacity:1;"/>
<path d="M221 45C221.552 45 222 44.5523 222 44C222 43.4477 221.552 43 221 43C220.448 43 220 43.4477 220 44C220 44.5523 220.448 45 221 45Z" fill="#03282C" style="fill:#03282C;fill:color(display-p3 0.0118 0.1569 0.1725);fill-opacity:1;"/>
<path d="M226 45C226.552 45 227 44.5523 227 44C227 43.4477 226.552 43 226 43C225.448 43 225 43.4477 225 44C225 44.5523 225.448 45 226 45Z" fill="#03282C" style="fill:#03282C;fill:color(display-p3 0.0118 0.1569 0.1725);fill-opacity:1;"/>
<path d="M231 45C231.552 45 232 44.5523 232 44C232 43.4477 231.552 43 231 43C230.448 43 230 43.4477 230 44C230 44.5523 230.448 45 231 45Z" fill="#03282C" style="fill:#03282C;fill:color(display-p3 0.0118 0.1569 0.1725);fill-opacity:1;"/>
<path d="M236 45C236.552 45 237 44.5523 237 44C237 43.4477 236.552 43 236 43C235.448 43 235 43.4477 235 44C235 44.5523 235.448 45 236 45Z" fill="#03282C" style="fill:#03282C;fill:color(display-p3 0.0118 0.1569 0.1725);fill-opacity:1;"/>
<path d="M241 45C241.552 45 242 44.5523 242 44C242 43.4477 241.552 43 241 43C240.448 43 240 43.4477 240 44C240 44.5523 240.448 45 241 45Z" fill="#03282C" style="fill:#03282C;fill:color(display-p3 0.0118 0.1569 0.1725);fill-opacity:1;"/>
<path d="M246 45C246.552 45 247 44.5523 247 44C247 43.4477 246.552 43 246 43C245.448 43 245 43.4477 245 44C245 44.5523 245.448 45 246 45Z" fill="#03282C" style="fill:#03282C;fill:color(display-p3 0.0118 0.1569 0.1725);fill-opacity:1;"/>
<path d="M251 45C251.552 45 252 44.5523 252 44C252 43.4477 251.552 43 251 43C250.448 43 250 43.4477 250 44C250 44.5523 250.448 45 251 45Z" fill="#03282C" style="fill:#03282C;fill:color(display-p3 0.0118 0.1569 0.1725);fill-opacity:1;"/>
</g>
</svg>
