<svg width="38" height="38" viewBox="0 0 38 38" fill="none" xmlns="http://www.w3.org/2000/svg">
<g opacity="0.3">
<path d="M6 19C6 11.8203 11.8203 6 19 6C26.1797 6 32 11.8203 32 19C32 26.1797 26.1797 32 19 32C11.8203 32 6 26.1797 6 19Z" stroke="#D92D20" style="stroke:#D92D20;stroke:color(display-p3 0.8526 0.1757 0.1274);stroke-opacity:1;" stroke-width="2"/>
</g>
<g opacity="0.1">
<path d="M1 19C1 9.05888 9.05888 1 19 1C28.9411 1 37 9.05888 37 19C37 28.9411 28.9411 37 19 37C9.05888 37 1 28.9411 1 19Z" stroke="#D92D20" style="stroke:#D92D20;stroke:color(display-p3 0.8526 0.1757 0.1274);stroke-opacity:1;" stroke-width="2"/>
</g>
<g clip-path="url(#clip0_6121_2363)">
<path d="M18.9998 15.6667V19.0001M18.9998 22.3334H19.0082M27.3332 19.0001C27.3332 23.6025 23.6022 27.3334 18.9998 27.3334C14.3975 27.3334 10.6665 23.6025 10.6665 19.0001C10.6665 14.3977 14.3975 10.6667 18.9998 10.6667C23.6022 10.6667 27.3332 14.3977 27.3332 19.0001Z" stroke="#D92D20" style="stroke:#D92D20;stroke:color(display-p3 0.8526 0.1757 0.1274);stroke-opacity:1;" stroke-width="1.66667" stroke-linecap="round" stroke-linejoin="round"/>
</g>
<defs>
<clipPath id="clip0_6121_2363">
<rect width="20" height="20" fill="white" style="fill:white;fill-opacity:1;" transform="translate(9 9)"/>
</clipPath>
</defs>
</svg>
