<svg width="32" height="32" viewBox="0 0 32 32" fill="none" xmlns="http://www.w3.org/2000/svg">
<path d="M22.6667 12L14.6667 20M14.6667 12L22.6667 20M3.62667 17.28L9.38667 24.96C9.856 25.5858 10.0907 25.8987 10.3881 26.1244C10.6515 26.3242 10.9498 26.4734 11.2677 26.5642C11.6267 26.6667 12.0178 26.6667 12.8 26.6667H22.9333C25.1735 26.6667 26.2936 26.6667 27.1493 26.2307C27.9019 25.8472 28.5139 25.2353 28.8974 24.4827C29.3333 23.627 29.3333 22.5069 29.3333 20.2667V11.7334C29.3333 9.49316 29.3333 8.37306 28.8974 7.51741C28.5139 6.76476 27.9019 6.15284 27.1493 5.76935C26.2936 5.33337 25.1735 5.33337 22.9333 5.33337H12.8C12.0178 5.33337 11.6267 5.33337 11.2677 5.4359C10.9498 5.5267 10.6515 5.67584 10.3881 5.87571C10.0907 6.10138 9.856 6.41427 9.38667 7.04004L3.62667 14.72C3.28241 15.1791 3.11028 15.4086 3.04393 15.6606C2.98536 15.8831 2.98536 16.117 3.04393 16.3395C3.11028 16.5915 3.28241 16.821 3.62667 17.28Z" stroke="#CECFD2" style="stroke:#CECFD2;stroke:color(display-p3 0.8078 0.8118 0.8235);stroke-opacity:1;" stroke-width="2" stroke-linecap="round" stroke-linejoin="round"/>
</svg>
