<svg width="25" height="24" viewBox="0 0 25 24" fill="none" xmlns="http://www.w3.org/2000/svg">
<path d="M8.5 3H8.3C6.61984 3 5.77976 3 5.13803 3.32698C4.57354 3.6146 4.1146 4.07354 3.82698 4.63803C3.5 5.27976 3.5 6.11984 3.5 7.8V8M8.5 21H8.3C6.61984 21 5.77976 21 5.13803 20.673C4.57354 20.3854 4.1146 19.9265 3.82698 19.362C3.5 18.7202 3.5 17.8802 3.5 16.2V16M21.5 8V7.8C21.5 6.11984 21.5 5.27976 21.173 4.63803C20.8854 4.07354 20.4265 3.6146 19.862 3.32698C19.2202 3 18.3802 3 16.7 3H16.5M21.5 16V16.2C21.5 17.8802 21.5 18.7202 21.173 19.362C20.8854 19.9265 20.4265 20.3854 19.862 20.673C19.2202 21 18.3802 21 16.7 21H16.5M3.5 12H3.51M8 12H8.01M17 12H17.01M12.5 12H12.51M21.5 12H21.51" stroke="#667085" style="stroke:#667085;stroke:color(display-p3 0.4000 0.4392 0.5216);stroke-opacity:1;" stroke-width="1.66667" stroke-linecap="round" stroke-linejoin="round"/>
</svg>
