<svg width="20" height="20" viewBox="0 0 20 20" fill="none" xmlns="http://www.w3.org/2000/svg">
<path d="M9.99935 10.8334C10.4596 10.8334 10.8327 10.4603 10.8327 10C10.8327 9.5398 10.4596 9.16671 9.99935 9.16671C9.53911 9.16671 9.16602 9.5398 9.16602 10C9.16602 10.4603 9.53911 10.8334 9.99935 10.8334Z" stroke="#98A2B3" style="stroke:#98A2B3;stroke:color(display-p3 0.5964 0.6352 0.7017);stroke-opacity:1;" stroke-width="1.66667" stroke-linecap="round" stroke-linejoin="round"/>
<path d="M9.99935 5.00004C10.4596 5.00004 10.8327 4.62694 10.8327 4.16671C10.8327 3.70647 10.4596 3.33337 9.99935 3.33337C9.53911 3.33337 9.16602 3.70647 9.16602 4.16671C9.16602 4.62694 9.53911 5.00004 9.99935 5.00004Z" stroke="#98A2B3" style="stroke:#98A2B3;stroke:color(display-p3 0.5964 0.6352 0.7017);stroke-opacity:1;" stroke-width="1.66667" stroke-linecap="round" stroke-linejoin="round"/>
<path d="M9.99935 16.6667C10.4596 16.6667 10.8327 16.2936 10.8327 15.8334C10.8327 15.3731 10.4596 15 9.99935 15C9.53911 15 9.16602 15.3731 9.16602 15.8334C9.16602 16.2936 9.53911 16.6667 9.99935 16.6667Z" stroke="#98A2B3" style="stroke:#98A2B3;stroke:color(display-p3 0.5964 0.6352 0.7017);stroke-opacity:1;" stroke-width="1.66667" stroke-linecap="round" stroke-linejoin="round"/>
</svg>
