<svg width="48" height="48" viewBox="0 0 48 48" fill="none" xmlns="http://www.w3.org/2000/svg">
<g clip-path="url(#clip0_21_17060)">
<path d="M47.2656 14.3641C45.8857 11.0342 42.8497 8.89023 39.5078 8.49223C39.1098 5.15028 36.9678 2.11433 33.6358 0.734352C30.3059 -0.645627 26.644 -0.0136398 24 2.06833C21.356 -0.0136398 17.6941 -0.645627 14.3641 0.734352C11.0342 2.11433 8.89022 5.15028 8.49223 8.49223C5.15028 8.89023 2.11433 11.0322 0.734352 14.3641C-0.645627 17.6941 -0.0136398 21.356 2.06833 24C-0.0136398 26.644 -0.645627 30.3059 0.734352 33.6359C2.11433 36.9658 5.15028 39.1098 8.49223 39.5078C8.89022 42.8497 11.0322 45.8857 14.3641 47.2657C17.6941 48.6456 21.356 48.0136 24 45.9317C26.644 48.0136 30.3059 48.6456 33.6358 47.2657C36.9658 45.8857 39.1098 42.8497 39.5078 39.5078C42.8497 39.1098 45.8857 36.9678 47.2656 33.6359C48.6456 30.3059 48.0136 26.644 45.9317 24C48.0136 21.356 48.6456 17.6941 47.2656 14.3641ZM42.5897 22.252L40.4577 24.384L35.9238 28.9199V33.9978L35.9318 34.0059L43.3097 26.628C44.3877 28.2279 44.6717 30.3199 43.8777 32.2359C42.9297 34.5258 40.7158 35.9078 38.3818 35.9098H35.3658H28.9539L25.364 39.5018V39.5118H35.7978C35.4298 41.4057 34.1498 43.0857 32.2339 43.8777C29.9439 44.8257 27.3999 44.2377 25.75 42.5877L23.618 40.4558L19.0821 35.9218H14.0042L13.9961 35.9298L21.374 43.3077C19.7741 44.3857 17.6821 44.6697 15.7661 43.8757C13.4762 42.9277 12.0942 40.7138 12.0922 38.3798H12.0362V35.3898V28.9539L8.44423 25.364H8.43424V35.7878C6.56226 35.4058 4.90829 34.1318 4.1223 32.2339C3.17432 29.9439 3.7623 27.3999 5.41228 25.75L7.54425 23.618L12.0762 19.0821V14.0041L12.0682 13.9962L4.69029 21.374C3.61231 19.7741 3.32831 17.6821 4.1223 15.7661C5.07029 13.4762 7.28426 12.0942 9.61822 12.0922H12.6342H19.0461L22.636 8.50023V8.49024H12.2022C12.5702 6.59626 13.8502 4.91629 15.7661 4.1243C18.0561 3.17631 20.6 3.76431 22.25 5.41428L24.382 7.54625L28.9179 12.0802H33.9958L34.0038 12.0722L26.626 4.69429C28.2259 3.61631 30.3179 3.33231 32.2339 4.1263C34.5238 5.07429 35.9058 7.28825 35.9078 9.62221V12.6382V19.0501L39.4998 22.64H39.5098V12.2062C41.4037 12.5742 43.0837 13.8542 43.8757 15.7701C44.8237 18.0601 44.2357 20.6041 42.5857 22.254L42.5897 22.252Z" style="fill:#004A46;fill:color(display-p3 0.0000 0.2902 0.2745);fill-opacity:1;"/>
</g>
<defs>
<clipPath id="clip0_21_17060">
<path d="M0 24C0 18.4202 0 15.6303 0.613335 13.3413C2.27774 7.1296 7.1296 2.27774 13.3413 0.613335C15.6303 0 18.4202 0 24 0C29.5798 0 32.3697 0 34.6587 0.613335C40.8704 2.27774 45.7223 7.1296 47.3867 13.3413C48 15.6303 48 18.4202 48 24C48 29.5798 48 32.3697 47.3867 34.6587C45.7223 40.8704 40.8704 45.7223 34.6587 47.3867C32.3697 48 29.5798 48 24 48C18.4202 48 15.6303 48 13.3413 47.3867C7.1296 45.7223 2.27774 40.8704 0.613335 34.6587C0 32.3697 0 29.5798 0 24Z" fill="white" style="fill:white;fill-opacity:1;"/>
</clipPath>
</defs>
</svg>
